<mxfile host="app.diagrams.net" agent="Mozilla/5.0 (Windows NT 10.0; Win64; x64) AppleWebKit/537.36 (KHTML, like Gecko) Chrome/136.0.0.0 Safari/537.36 Edg/136.0.0.0" scale="1" border="0" version="27.0.6">
  <diagram name="Page-1" id="KKPPtuwhtIUw5sBMRgaq">
    <mxGraphModel dx="2327" dy="814" grid="1" gridSize="10" guides="1" tooltips="1" connect="1" arrows="1" fold="1" page="1" pageScale="1" pageWidth="850" pageHeight="1100" math="0" shadow="0">
      <root>
        <mxCell id="0" />
        <mxCell id="1" parent="0" />
        <mxCell id="krazYXLyubEMnXtPNlQG-1" value="Staff / Admin" style="shape=umlActor;verticalLabelPosition=bottom;verticalAlign=top;html=1;outlineConnect=0;" parent="1" vertex="1">
          <mxGeometry x="90" y="240" width="30" height="60" as="geometry" />
        </mxCell>
        <mxCell id="krazYXLyubEMnXtPNlQG-2" value=": OrderManagementPage" style="rounded=0;whiteSpace=wrap;html=1;" parent="1" vertex="1">
          <mxGeometry x="280" y="250" width="160" height="60" as="geometry" />
        </mxCell>
        <mxCell id="krazYXLyubEMnXtPNlQG-3" value=": FormUI" style="rounded=0;whiteSpace=wrap;html=1;" parent="1" vertex="1">
          <mxGeometry x="280" y="410" width="160" height="60" as="geometry" />
        </mxCell>
        <mxCell id="krazYXLyubEMnXtPNlQG-4" value=": OrderController" style="rounded=0;whiteSpace=wrap;html=1;" parent="1" vertex="1">
          <mxGeometry x="620" y="250" width="160" height="60" as="geometry" />
        </mxCell>
        <mxCell id="krazYXLyubEMnXtPNlQG-5" value=": Database" style="rounded=0;whiteSpace=wrap;html=1;" parent="1" vertex="1">
          <mxGeometry x="980" y="250" width="160" height="60" as="geometry" />
        </mxCell>
        <mxCell id="krazYXLyubEMnXtPNlQG-6" value=": ShipmentCompany" style="rounded=0;whiteSpace=wrap;html=1;" parent="1" vertex="1">
          <mxGeometry x="560" y="490" width="150" height="60" as="geometry" />
        </mxCell>
        <mxCell id="krazYXLyubEMnXtPNlQG-7" style="edgeStyle=orthogonalEdgeStyle;rounded=0;orthogonalLoop=1;jettySize=auto;html=1;fontFamily=Tahoma;fontSize=14;fontColor=#000066;endArrow=none;endFill=0;fillColor=#ffe6cc;strokeColor=#d79b00;entryX=0;entryY=0.5;entryDx=0;entryDy=0;" parent="1" target="krazYXLyubEMnXtPNlQG-2" edge="1">
          <mxGeometry relative="1" as="geometry">
            <mxPoint x="130" y="280" as="sourcePoint" />
            <mxPoint x="260" y="279.5" as="targetPoint" />
            <Array as="points" />
          </mxGeometry>
        </mxCell>
        <mxCell id="krazYXLyubEMnXtPNlQG-8" value="" style="endArrow=classic;html=1;rounded=0;" parent="1" edge="1">
          <mxGeometry width="50" height="50" relative="1" as="geometry">
            <mxPoint x="130" y="270" as="sourcePoint" />
            <mxPoint x="260" y="270" as="targetPoint" />
          </mxGeometry>
        </mxCell>
        <mxCell id="krazYXLyubEMnXtPNlQG-10" value="" style="endArrow=classic;html=1;rounded=0;" parent="1" edge="1">
          <mxGeometry width="50" height="50" relative="1" as="geometry">
            <mxPoint x="450" y="270" as="sourcePoint" />
            <mxPoint x="600" y="270" as="targetPoint" />
            <Array as="points" />
          </mxGeometry>
        </mxCell>
        <mxCell id="krazYXLyubEMnXtPNlQG-11" style="edgeStyle=orthogonalEdgeStyle;rounded=0;orthogonalLoop=1;jettySize=auto;html=1;fontFamily=Tahoma;fontSize=14;fontColor=#000066;endArrow=none;endFill=0;fillColor=#ffe6cc;strokeColor=#d79b00;exitX=1;exitY=0.5;exitDx=0;exitDy=0;entryX=0;entryY=0.5;entryDx=0;entryDy=0;" parent="1" source="krazYXLyubEMnXtPNlQG-2" target="krazYXLyubEMnXtPNlQG-4" edge="1">
          <mxGeometry relative="1" as="geometry">
            <mxPoint x="490" y="280" as="sourcePoint" />
            <mxPoint x="580" y="280" as="targetPoint" />
            <Array as="points" />
          </mxGeometry>
        </mxCell>
        <mxCell id="krazYXLyubEMnXtPNlQG-12" value="1.2: getOrderDetailsRequest(orderId)" style="text;html=1;align=center;verticalAlign=middle;whiteSpace=wrap;rounded=0;" parent="1" vertex="1">
          <mxGeometry x="420" y="220" width="230" height="30" as="geometry" />
        </mxCell>
        <mxCell id="krazYXLyubEMnXtPNlQG-14" style="edgeStyle=orthogonalEdgeStyle;rounded=0;orthogonalLoop=1;jettySize=auto;html=1;fontFamily=Tahoma;fontSize=14;fontColor=#000066;endArrow=none;endFill=0;fillColor=#ffe6cc;strokeColor=#d79b00;exitX=1;exitY=0.5;exitDx=0;exitDy=0;entryX=0;entryY=0.5;entryDx=0;entryDy=0;" parent="1" target="krazYXLyubEMnXtPNlQG-5" edge="1">
          <mxGeometry relative="1" as="geometry">
            <mxPoint x="780" y="279.5" as="sourcePoint" />
            <mxPoint x="950" y="280" as="targetPoint" />
            <Array as="points" />
          </mxGeometry>
        </mxCell>
        <mxCell id="krazYXLyubEMnXtPNlQG-15" value="1.3: getOrderDetails(orderId)" style="text;html=1;align=center;verticalAlign=middle;whiteSpace=wrap;rounded=0;" parent="1" vertex="1">
          <mxGeometry x="790" y="240" width="160" height="30" as="geometry" />
        </mxCell>
        <mxCell id="krazYXLyubEMnXtPNlQG-16" value="" style="endArrow=classic;html=1;rounded=0;" parent="1" edge="1">
          <mxGeometry width="50" height="50" relative="1" as="geometry">
            <mxPoint x="790" y="270" as="sourcePoint" />
            <mxPoint x="970" y="270" as="targetPoint" />
          </mxGeometry>
        </mxCell>
        <mxCell id="krazYXLyubEMnXtPNlQG-18" value="" style="endArrow=classic;html=1;rounded=0;" parent="1" edge="1">
          <mxGeometry width="50" height="50" relative="1" as="geometry">
            <mxPoint x="970" y="290" as="sourcePoint" />
            <mxPoint x="800" y="290" as="targetPoint" />
          </mxGeometry>
        </mxCell>
        <mxCell id="krazYXLyubEMnXtPNlQG-19" value="1.3.1: returnOrder()" style="text;html=1;align=center;verticalAlign=middle;whiteSpace=wrap;rounded=0;" parent="1" vertex="1">
          <mxGeometry x="810" y="300" width="140" height="30" as="geometry" />
        </mxCell>
        <mxCell id="krazYXLyubEMnXtPNlQG-20" style="edgeStyle=orthogonalEdgeStyle;rounded=0;orthogonalLoop=1;jettySize=auto;html=1;fontFamily=Tahoma;fontSize=14;fontColor=#000066;endArrow=none;endFill=0;fillColor=#ffe6cc;strokeColor=#d79b00;entryX=0.414;entryY=1.027;entryDx=0;entryDy=0;entryPerimeter=0;exitX=1;exitY=0.5;exitDx=0;exitDy=0;" parent="1" source="krazYXLyubEMnXtPNlQG-3" target="krazYXLyubEMnXtPNlQG-4" edge="1">
          <mxGeometry relative="1" as="geometry">
            <mxPoint x="500" y="390" as="sourcePoint" />
            <mxPoint x="650" y="390" as="targetPoint" />
            <Array as="points">
              <mxPoint x="686" y="440" />
            </Array>
          </mxGeometry>
        </mxCell>
        <mxCell id="krazYXLyubEMnXtPNlQG-21" value="" style="endArrow=classic;html=1;rounded=0;" parent="1" edge="1">
          <mxGeometry width="50" height="50" relative="1" as="geometry">
            <mxPoint x="350" y="320" as="sourcePoint" />
            <mxPoint x="350" y="380" as="targetPoint" />
          </mxGeometry>
        </mxCell>
        <mxCell id="krazYXLyubEMnXtPNlQG-22" style="edgeStyle=orthogonalEdgeStyle;rounded=0;orthogonalLoop=1;jettySize=auto;html=1;fontFamily=Tahoma;fontSize=14;fontColor=#000066;endArrow=none;endFill=0;fillColor=#ffe6cc;strokeColor=#d79b00;exitX=0.5;exitY=1;exitDx=0;exitDy=0;entryX=0.5;entryY=0;entryDx=0;entryDy=0;" parent="1" source="krazYXLyubEMnXtPNlQG-2" target="krazYXLyubEMnXtPNlQG-3" edge="1">
          <mxGeometry relative="1" as="geometry">
            <mxPoint x="360" y="360" as="sourcePoint" />
            <mxPoint x="540" y="360" as="targetPoint" />
            <Array as="points">
              <mxPoint x="360" y="410" />
            </Array>
          </mxGeometry>
        </mxCell>
        <mxCell id="krazYXLyubEMnXtPNlQG-24" value="" style="endArrow=classic;html=1;rounded=0;" parent="1" edge="1">
          <mxGeometry width="50" height="50" relative="1" as="geometry">
            <mxPoint x="699.5" y="340" as="sourcePoint" />
            <mxPoint x="699.5" y="400" as="targetPoint" />
          </mxGeometry>
        </mxCell>
        <mxCell id="krazYXLyubEMnXtPNlQG-25" value="1.4: returnOrderDetails(orderId)" style="text;html=1;align=center;verticalAlign=middle;whiteSpace=wrap;rounded=0;" parent="1" vertex="1">
          <mxGeometry x="710" y="350" width="180" height="30" as="geometry" />
        </mxCell>
        <mxCell id="krazYXLyubEMnXtPNlQG-26" value="1.1: openForm()" style="text;html=1;align=center;verticalAlign=middle;whiteSpace=wrap;rounded=0;" parent="1" vertex="1">
          <mxGeometry x="210" y="330" width="140" height="30" as="geometry" />
        </mxCell>
        <mxCell id="krazYXLyubEMnXtPNlQG-27" style="edgeStyle=orthogonalEdgeStyle;rounded=0;orthogonalLoop=1;jettySize=auto;html=1;fontFamily=Tahoma;fontSize=14;fontColor=#000066;endArrow=none;endFill=0;fillColor=#ffe6cc;strokeColor=#d79b00;entryX=0.414;entryY=1.027;entryDx=0;entryDy=0;entryPerimeter=0;exitX=0;exitY=0.5;exitDx=0;exitDy=0;" parent="1" source="krazYXLyubEMnXtPNlQG-3" edge="1">
          <mxGeometry relative="1" as="geometry">
            <mxPoint x="230" y="440" as="sourcePoint" />
            <mxPoint x="356" y="470" as="targetPoint" />
            <Array as="points">
              <mxPoint x="230" y="440" />
              <mxPoint x="230" y="500" />
              <mxPoint x="360" y="500" />
              <mxPoint x="360" y="470" />
            </Array>
          </mxGeometry>
        </mxCell>
        <mxCell id="krazYXLyubEMnXtPNlQG-28" value="" style="endArrow=classic;html=1;rounded=0;" parent="1" edge="1">
          <mxGeometry width="50" height="50" relative="1" as="geometry">
            <mxPoint x="300" y="520" as="sourcePoint" />
            <mxPoint x="210" y="470" as="targetPoint" />
            <Array as="points">
              <mxPoint x="210" y="520" />
            </Array>
          </mxGeometry>
        </mxCell>
        <mxCell id="krazYXLyubEMnXtPNlQG-29" value="1.5: displayOrder(orderId)" style="text;html=1;align=center;verticalAlign=middle;whiteSpace=wrap;rounded=0;" parent="1" vertex="1">
          <mxGeometry x="180" y="530" width="140" height="30" as="geometry" />
        </mxCell>
        <mxCell id="krazYXLyubEMnXtPNlQG-30" style="edgeStyle=orthogonalEdgeStyle;rounded=0;orthogonalLoop=1;jettySize=auto;html=1;fontFamily=Tahoma;fontSize=14;fontColor=#000066;endArrow=none;endFill=0;fillColor=#ffe6cc;strokeColor=#d79b00;" parent="1" edge="1">
          <mxGeometry relative="1" as="geometry">
            <mxPoint x="105" y="330" as="sourcePoint" />
            <mxPoint x="280" y="430" as="targetPoint" />
            <Array as="points">
              <mxPoint x="105" y="430" />
              <mxPoint x="280" y="430" />
            </Array>
          </mxGeometry>
        </mxCell>
        <mxCell id="krazYXLyubEMnXtPNlQG-31" value="1.6: requestShipmentInfo()" style="text;html=1;align=center;verticalAlign=middle;whiteSpace=wrap;rounded=0;" parent="1" vertex="1">
          <mxGeometry x="120" y="380" width="160" height="30" as="geometry" />
        </mxCell>
        <mxCell id="krazYXLyubEMnXtPNlQG-32" value="" style="endArrow=classic;html=1;rounded=0;" parent="1" edge="1">
          <mxGeometry width="50" height="50" relative="1" as="geometry">
            <mxPoint x="260" y="420" as="sourcePoint" />
            <mxPoint x="130" y="420" as="targetPoint" />
          </mxGeometry>
        </mxCell>
        <mxCell id="krazYXLyubEMnXtPNlQG-33" value="" style="endArrow=classic;html=1;rounded=0;" parent="1" edge="1">
          <mxGeometry width="50" height="50" relative="1" as="geometry">
            <mxPoint x="90" y="350" as="sourcePoint" />
            <mxPoint x="90" y="410" as="targetPoint" />
          </mxGeometry>
        </mxCell>
        <mxCell id="krazYXLyubEMnXtPNlQG-34" value="2: submitForm(orderId, order)" style="text;html=1;align=center;verticalAlign=middle;whiteSpace=wrap;rounded=0;" parent="1" vertex="1">
          <mxGeometry x="-90" y="360" width="170" height="30" as="geometry" />
        </mxCell>
        <mxCell id="krazYXLyubEMnXtPNlQG-35" style="edgeStyle=orthogonalEdgeStyle;rounded=0;orthogonalLoop=1;jettySize=auto;html=1;fontFamily=Tahoma;fontSize=14;fontColor=#000066;endArrow=none;endFill=0;fillColor=#ffe6cc;strokeColor=#d79b00;entryX=0;entryY=0.5;entryDx=0;entryDy=0;exitX=0.561;exitY=0.994;exitDx=0;exitDy=0;exitPerimeter=0;" parent="1" source="krazYXLyubEMnXtPNlQG-3" target="krazYXLyubEMnXtPNlQG-6" edge="1">
          <mxGeometry relative="1" as="geometry">
            <mxPoint x="410" y="500" as="sourcePoint" />
            <mxPoint x="486" y="530" as="targetPoint" />
            <Array as="points">
              <mxPoint x="370" y="520" />
            </Array>
          </mxGeometry>
        </mxCell>
        <mxCell id="krazYXLyubEMnXtPNlQG-37" value="2.1: requestShipment(order)" style="text;html=1;align=center;verticalAlign=middle;whiteSpace=wrap;rounded=0;" parent="1" vertex="1">
          <mxGeometry x="370" y="535" width="160" height="30" as="geometry" />
        </mxCell>
        <mxCell id="krazYXLyubEMnXtPNlQG-38" value="2.2: updateOrderStatusRequest(orderId, &quot;shipping&quot;)" style="text;html=1;align=center;verticalAlign=middle;whiteSpace=wrap;rounded=0;" parent="1" vertex="1">
          <mxGeometry x="440" y="390" width="230" height="30" as="geometry" />
        </mxCell>
        <mxCell id="krazYXLyubEMnXtPNlQG-40" value="" style="endArrow=classic;html=1;rounded=0;" parent="1" edge="1">
          <mxGeometry width="50" height="50" relative="1" as="geometry">
            <mxPoint x="390" y="530" as="sourcePoint" />
            <mxPoint x="530" y="530" as="targetPoint" />
          </mxGeometry>
        </mxCell>
        <mxCell id="krazYXLyubEMnXtPNlQG-41" value="" style="endArrow=classic;html=1;rounded=0;entryX=1;entryY=1;entryDx=0;entryDy=0;" parent="1" edge="1">
          <mxGeometry width="50" height="50" relative="1" as="geometry">
            <mxPoint x="450" y="430" as="sourcePoint" />
            <mxPoint x="660" y="430" as="targetPoint" />
          </mxGeometry>
        </mxCell>
        <mxCell id="krazYXLyubEMnXtPNlQG-42" value="2.3: updateStatus(orderId, &quot;shipping&quot;)" style="text;html=1;align=center;verticalAlign=middle;whiteSpace=wrap;rounded=0;" parent="1" vertex="1">
          <mxGeometry x="775" y="220" width="210" height="30" as="geometry" />
        </mxCell>
        <mxCell id="krazYXLyubEMnXtPNlQG-43" value=": NotificationModule" style="rounded=0;whiteSpace=wrap;html=1;" parent="1" vertex="1">
          <mxGeometry x="620" y="100" width="160" height="60" as="geometry" />
        </mxCell>
        <mxCell id="krazYXLyubEMnXtPNlQG-44" value="" style="endArrow=classic;html=1;rounded=0;" parent="1" edge="1">
          <mxGeometry width="50" height="50" relative="1" as="geometry">
            <mxPoint x="690" y="230" as="sourcePoint" />
            <mxPoint x="690" y="180" as="targetPoint" />
          </mxGeometry>
        </mxCell>
        <mxCell id="krazYXLyubEMnXtPNlQG-45" style="edgeStyle=orthogonalEdgeStyle;rounded=0;orthogonalLoop=1;jettySize=auto;html=1;fontFamily=Tahoma;fontSize=14;fontColor=#000066;endArrow=none;endFill=0;fillColor=#ffe6cc;strokeColor=#d79b00;exitX=0.5;exitY=0;exitDx=0;exitDy=0;entryX=0.5;entryY=1;entryDx=0;entryDy=0;" parent="1" source="krazYXLyubEMnXtPNlQG-4" target="krazYXLyubEMnXtPNlQG-43" edge="1">
          <mxGeometry relative="1" as="geometry">
            <mxPoint x="680" y="210" as="sourcePoint" />
            <mxPoint x="860" y="210" as="targetPoint" />
            <Array as="points" />
          </mxGeometry>
        </mxCell>
        <mxCell id="krazYXLyubEMnXtPNlQG-46" value="2.4: createSuccessNoti()" style="text;html=1;align=center;verticalAlign=middle;whiteSpace=wrap;rounded=0;" parent="1" vertex="1">
          <mxGeometry x="530" y="190" width="160" height="30" as="geometry" />
        </mxCell>
        <mxCell id="krazYXLyubEMnXtPNlQG-47" style="edgeStyle=orthogonalEdgeStyle;rounded=0;orthogonalLoop=1;jettySize=auto;html=1;fontFamily=Tahoma;fontSize=14;fontColor=#000066;endArrow=none;endFill=0;fillColor=#ffe6cc;strokeColor=#d79b00;exitX=0;exitY=0.5;exitDx=0;exitDy=0;entryX=0.5;entryY=0;entryDx=0;entryDy=0;" parent="1" source="krazYXLyubEMnXtPNlQG-43" target="krazYXLyubEMnXtPNlQG-2" edge="1">
          <mxGeometry relative="1" as="geometry">
            <mxPoint x="400" y="110" as="sourcePoint" />
            <mxPoint x="400" y="210" as="targetPoint" />
            <Array as="points">
              <mxPoint x="360" y="130" />
            </Array>
          </mxGeometry>
        </mxCell>
        <mxCell id="krazYXLyubEMnXtPNlQG-49" value="" style="endArrow=classic;html=1;rounded=0;" parent="1" edge="1">
          <mxGeometry width="50" height="50" relative="1" as="geometry">
            <mxPoint x="460" y="120" as="sourcePoint" />
            <mxPoint x="350" y="170" as="targetPoint" />
            <Array as="points">
              <mxPoint x="350" y="120" />
            </Array>
          </mxGeometry>
        </mxCell>
        <mxCell id="krazYXLyubEMnXtPNlQG-50" value="2.5: displaySuccess()" style="text;html=1;align=center;verticalAlign=middle;whiteSpace=wrap;rounded=0;" parent="1" vertex="1">
          <mxGeometry x="330" y="90" width="160" height="30" as="geometry" />
        </mxCell>
        <mxCell id="82w6zDhNQFiINQ2xPARL-5" style="edgeStyle=orthogonalEdgeStyle;rounded=0;orthogonalLoop=1;jettySize=auto;html=1;fontFamily=Tahoma;fontSize=14;fontColor=#000066;endArrow=none;endFill=0;fillColor=#ffe6cc;strokeColor=#d79b00;entryX=0.448;entryY=0.002;entryDx=0;entryDy=0;entryPerimeter=0;exitX=0;exitY=0.25;exitDx=0;exitDy=0;" edge="1" parent="1" source="krazYXLyubEMnXtPNlQG-2" target="krazYXLyubEMnXtPNlQG-2">
          <mxGeometry relative="1" as="geometry">
            <mxPoint x="190" y="220" as="sourcePoint" />
            <mxPoint x="460" y="200" as="targetPoint" />
            <Array as="points">
              <mxPoint x="270" y="265" />
              <mxPoint x="270" y="221" />
              <mxPoint x="352" y="221" />
            </Array>
          </mxGeometry>
        </mxCell>
        <mxCell id="krazYXLyubEMnXtPNlQG-9" value="1: deliverOrder(orderId)" style="text;html=1;align=center;verticalAlign=middle;whiteSpace=wrap;rounded=0;" parent="1" vertex="1">
          <mxGeometry x="120" y="240" width="140" height="30" as="geometry" />
        </mxCell>
        <mxCell id="82w6zDhNQFiINQ2xPARL-7" value="" style="endArrow=classic;html=1;rounded=0;entryX=1;entryY=0;entryDx=0;entryDy=0;" edge="1" parent="1" target="krazYXLyubEMnXtPNlQG-9">
          <mxGeometry width="50" height="50" relative="1" as="geometry">
            <mxPoint x="350" y="210" as="sourcePoint" />
            <mxPoint x="240" y="210" as="targetPoint" />
            <Array as="points">
              <mxPoint x="260" y="210" />
            </Array>
          </mxGeometry>
        </mxCell>
        <mxCell id="82w6zDhNQFiINQ2xPARL-8" value="2.6: reloadUI()" style="text;html=1;align=center;verticalAlign=middle;whiteSpace=wrap;rounded=0;" vertex="1" parent="1">
          <mxGeometry x="210" y="180" width="160" height="30" as="geometry" />
        </mxCell>
      </root>
    </mxGraphModel>
  </diagram>
</mxfile>
